<svg xmlns="http://www.w3.org/2000/svg" width="17" height="35">
    <path fill="#fff" fill-rule="evenodd" d="M11.008 23.454h-4.08c-3.285 0-5.959-2.715-5.959-6.051V6.522C.969 3.186 3.643.471 6.928.471h4.08c3.285 0 5.957 2.715 5.957 6.051v10.881c0 3.336-2.672 6.051-5.957 6.051zm4.076-16.932c0-2.283-1.828-4.14-4.076-4.14h-4.08c-2.248 0-4.077 1.857-4.077 4.14v10.881c0 2.283 1.829 4.141 4.077 4.141h4.08c2.248 0 4.076-1.858 4.076-4.141V6.522zm-6.116 4.066c-.519 0-.94-.428-.941-.956V6.811c0-.528.421-.956.941-.956s.941.428.941.956v2.821c0 .528-.421.956-.941.956zM4.929 29.936c.187-.215.449-.326.711-.326.221 0 .442.078.621.236L8.03 31.41v-5.478c0-.527.423-.954.945-.954.521 0 .944.427.944.954v5.478l1.77-1.564c.179-.158.4-.236.621-.236.263 0 .525.111.711.326.344.397.304 1-.089 1.347L9.598 34.23c-.35.309-.862.309-1.212.024-.01-.008-.02-.013-.031-.024l-3.337-2.947c-.392-.347-.432-.95-.089-1.347z"/>
</svg>
