<?xml version="1.0" encoding="utf-8"?><svg xmlns="http://www.w3.org/2000/svg" xmlns:xlink="http://www.w3.org/1999/xlink"><symbol viewBox="0 0 17 35" id="scroll-down" xmlns="http://www.w3.org/2000/svg"><path fill-rule="evenodd" d="M11.008 23.454h-4.08c-3.285 0-5.959-2.715-5.959-6.051V6.522C.969 3.186 3.643.471 6.928.471h4.08c3.285 0 5.957 2.715 5.957 6.051v10.881c0 3.336-2.672 6.051-5.957 6.051zm4.076-16.932c0-2.283-1.828-4.14-4.076-4.14h-4.08c-2.248 0-4.077 1.857-4.077 4.14v10.881c0 2.283 1.829 4.141 4.077 4.141h4.08c2.248 0 4.076-1.858 4.076-4.141V6.522zm-6.116 4.066a.95.95 0 01-.941-.956V6.811c0-.528.421-.956.941-.956s.941.428.941.956v2.821a.948.948 0 01-.941.956zM4.929 29.936a.935.935 0 011.332-.09L8.03 31.41v-5.478a.95.95 0 01.945-.954.95.95 0 01.944.954v5.478l1.77-1.564a.935.935 0 011.332.09.96.96 0 01-.089 1.347L9.598 34.23a.936.936 0 01-1.212.024c-.01-.008-.02-.013-.031-.024l-3.337-2.947a.963.963 0 01-.089-1.347z"/></symbol></svg>